<svg xmlns="http://www.w3.org/2000/svg" xmlns:xlink="http://www.w3.org/1999/xlink" version="1.1" x="0px" y="0px" viewBox="0 0 100 100" enable-background="new 0 0 100 100" xml:space="preserve">
    <g>
        <path
            fill="none"
            d="M54.921,12.218c-0.118-0.381-0.274-0.744-0.476-1.08c-0.166-0.278-0.367-0.534-0.584-0.775   c-0.901-1.006-2.195-1.651-3.651-1.651h0c-1.456,0-2.749,0.645-3.651,1.651c-0.216,0.24-0.416,0.496-0.583,0.775   c-0.201,0.336-0.358,0.698-0.475,1.08h0.001H54.921z"></path>
        <path
            fill="none"
            d="M34.523,40.667c-0.124-0.015-0.252,0.017-0.358,0.1l-2.428,1.892l-0.001-0.001l-0.789-0.769   c-0.048-0.047-0.104-0.083-0.163-0.105c-0.176-0.069-0.384-0.031-0.526,0.113c-0.188,0.193-0.184,0.501,0.009,0.689l1.092,1.069   c0.006,0.006,0.015,0.011,0.022,0.017c0.011,0.009,0.022,0.018,0.033,0.026c0.018,0.013,0.036,0.024,0.055,0.034   c0.011,0.007,0.021,0.013,0.034,0.018c0.022,0.009,0.043,0.017,0.066,0.023c0.011,0.003,0.02,0.007,0.03,0.009   c0.034,0.006,0.067,0.011,0.101,0.011c0.001,0,0.001,0,0.001,0c0.047,0,0.094-0.009,0.139-0.023   c0.008-0.003,0.017-0.005,0.026-0.008c0.043-0.016,0.085-0.038,0.124-0.067c0.003-0.001,0.007-0.001,0.01-0.005l2.764-2.153   c0.213-0.167,0.251-0.473,0.085-0.685C34.766,40.745,34.647,40.683,34.523,40.667z"></path>
        <path
            fill="none"
            d="M34.523,28.538c-0.124-0.015-0.252,0.017-0.358,0.1l-2.428,1.893l-0.001-0.001l-0.789-0.771   c-0.096-0.094-0.221-0.14-0.346-0.138c-0.125,0.002-0.249,0.051-0.343,0.147c-0.188,0.192-0.184,0.501,0.009,0.689l1.092,1.069   c0.006,0.006,0.015,0.011,0.022,0.016c0.011,0.011,0.022,0.019,0.033,0.027c0.018,0.013,0.036,0.024,0.055,0.034   c0.011,0.007,0.021,0.013,0.034,0.019c0.022,0.008,0.043,0.016,0.066,0.022c0.011,0.003,0.02,0.006,0.03,0.009   c0.034,0.007,0.067,0.011,0.101,0.011c0.001,0,0.001,0,0.001,0c0.047,0,0.094-0.009,0.139-0.023   c0.008-0.003,0.017-0.006,0.026-0.007c0.043-0.016,0.085-0.038,0.124-0.067c0.003-0.003,0.007-0.003,0.01-0.005l2.764-2.155   c0.213-0.165,0.251-0.472,0.085-0.684C34.766,28.615,34.647,28.553,34.523,28.538z"></path>
        <path d="M30.258,41.897c0.142-0.145,0.35-0.182,0.526-0.113c-0.177-0.07-0.386-0.032-0.528,0.113   c-0.187,0.193-0.184,0.501,0.01,0.69l1.093,1.068l-1.092-1.069C30.074,42.398,30.07,42.09,30.258,41.897z"></path>
        <path d="M34.165,40.767c0.105-0.083,0.234-0.115,0.358-0.1c-0.124-0.015-0.254,0.017-0.36,0.1l-2.427,1.891l0.001,0.001   L34.165,40.767z"></path>
        <path d="M30.258,29.767c0.094-0.096,0.218-0.146,0.343-0.147c-0.125,0.001-0.25,0.051-0.345,0.147   c-0.187,0.192-0.184,0.501,0.01,0.69l1.093,1.068l-1.092-1.069C30.074,30.268,30.07,29.959,30.258,29.767z"></path>
        <rect x="76.408" y="18.35" width="0.001" height="71.294"></rect>
        <path d="M34.165,28.637c0.105-0.083,0.234-0.115,0.358-0.1c-0.124-0.016-0.254,0.017-0.36,0.1l-2.427,1.892l0.001,0.001   L34.165,28.637z"></path>
        <path
            d="M75.221,12.994H64.646c0.504,0.828,0.803,1.797,0.803,2.838c0,0.908-0.227,1.763-0.619,2.518h11.578h0.001v71.294h-0.001   H23.592V18.35h12.002c-0.394-0.755-0.619-1.61-0.619-2.518c0-1.041,0.297-2.01,0.803-2.838H24.779   c-2.859,0-5.186,2.327-5.186,5.187v71.633c0,2.858,2.327,5.187,5.186,5.187h50.442c2.86,0,5.188-2.327,5.188-5.187V18.18   C80.407,15.32,78.081,12.994,75.221,12.994z"></path>
        <rect x="39.625" y="26.719" width="30.621" height="2.547"></rect>
        <rect x="39.625" y="30.931" width="15.311" height="2.548"></rect>
        <rect x="39.625" y="38.855" width="30.621" height="2.546"></rect>
        <rect x="39.625" y="43.242" width="15.311" height="2.547"></rect>
        <rect x="39.625" y="51.166" width="30.621" height="2.547"></rect>
        <rect x="39.625" y="55.379" width="15.311" height="2.546"></rect>
        <rect x="39.625" y="63.302" width="30.621" height="2.546"></rect>
        <rect x="39.625" y="67.514" width="15.311" height="2.547"></rect>
        <rect x="39.625" y="75.613" width="30.621" height="2.546"></rect>
        <rect x="39.625" y="79.816" width="15.311" height="2.547"></rect>
        <path
            d="M35.914,26.719h-6.759v6.76h6.759V26.719z M34.764,29.406L32,31.561c-0.003,0.002-0.007,0.002-0.01,0.005   c-0.039,0.029-0.081,0.051-0.124,0.067c-0.009,0.001-0.018,0.004-0.026,0.007c-0.045,0.014-0.092,0.023-0.139,0.023   c0,0,0,0-0.001,0c-0.034,0-0.067-0.004-0.101-0.011c-0.01-0.003-0.019-0.006-0.03-0.009c-0.023-0.006-0.044-0.014-0.066-0.022   c-0.013-0.006-0.023-0.012-0.034-0.019c-0.019-0.01-0.037-0.021-0.055-0.034c-0.011-0.008-0.022-0.016-0.033-0.027   c-0.007-0.005-0.016-0.01-0.022-0.016l-1.093-1.068c-0.194-0.189-0.197-0.498-0.01-0.69c0.095-0.097,0.22-0.146,0.345-0.147   s0.25,0.044,0.346,0.138l0.789,0.771l2.427-1.892c0.106-0.083,0.236-0.115,0.36-0.1c0.125,0.015,0.243,0.078,0.326,0.185   C35.015,28.934,34.977,29.241,34.764,29.406z"></path>
        <path
            d="M35.914,38.855h-6.759v6.759h6.759V38.855z M34.764,41.537L32,43.69c-0.003,0.004-0.007,0.004-0.01,0.005   c-0.039,0.029-0.081,0.051-0.124,0.067c-0.009,0.003-0.018,0.005-0.026,0.008c-0.045,0.014-0.092,0.023-0.139,0.023   c0,0,0,0-0.001,0c-0.034,0-0.067-0.005-0.101-0.011c-0.01-0.002-0.019-0.006-0.03-0.009c-0.023-0.006-0.044-0.014-0.066-0.023   c-0.013-0.005-0.023-0.011-0.034-0.018c-0.019-0.01-0.037-0.021-0.055-0.034c-0.011-0.008-0.022-0.017-0.033-0.026   c-0.007-0.006-0.016-0.011-0.022-0.017l-1.093-1.068c-0.194-0.189-0.197-0.497-0.01-0.69c0.142-0.145,0.351-0.183,0.528-0.113   c0.059,0.023,0.115,0.058,0.163,0.105l0.789,0.769l2.427-1.891c0.106-0.083,0.236-0.115,0.36-0.1   c0.125,0.015,0.243,0.078,0.326,0.185C35.015,41.064,34.977,41.37,34.764,41.537z"></path>
        <rect x="29.155" y="51.166" width="6.759" height="6.759"></rect>
        <rect x="29.155" y="63.302" width="6.759" height="6.759"></rect>
        <rect x="29.155" y="75.613" width="6.759" height="6.759"></rect>
        <path
            d="M40.443,19.445h19.536c1.992,0,3.612-1.621,3.612-3.613c0-1.993-1.62-3.614-3.612-3.614h-1.235   c-0.062-0.368-0.14-0.729-0.248-1.08c-0.079-0.264-0.177-0.522-0.282-0.775C56.913,7.22,53.818,5,50.211,5   c-3.607,0-6.7,2.22-8,5.362c0,0,0,0,0,0.001c-0.105,0.253-0.202,0.511-0.282,0.774c-0.108,0.351-0.185,0.713-0.248,1.081h-1.237   c-1.992,0-3.612,1.621-3.612,3.614C36.831,17.824,38.451,19.445,40.443,19.445z M45.976,11.138   c0.167-0.279,0.367-0.535,0.583-0.775c0.902-1.006,2.195-1.651,3.651-1.651h0c1.456,0,2.75,0.645,3.651,1.651   c0.217,0.241,0.418,0.497,0.584,0.775c0.201,0.336,0.357,0.699,0.476,1.08h-9.419h-0.001   C45.618,11.836,45.775,11.474,45.976,11.138z"></path>
    </g>
</svg>
