<?xml version="1.0" encoding="utf-8"?>
<!-- Generator: Adobe Illustrator 16.0.4, SVG Export Plug-In . SVG Version: 6.00 Build 0)  -->
<!DOCTYPE svg PUBLIC "-//W3C//DTD SVG 1.1//EN" "http://www.w3.org/Graphics/SVG/1.1/DTD/svg11.dtd">
<svg version="1.1" id="Layer_1" xmlns="http://www.w3.org/2000/svg" xmlns:xlink="http://www.w3.org/1999/xlink" x="0px" y="0px"
	 width="120.775px" height="117.793px" viewBox="0 0 120.775 117.793" enable-background="new 0 0 120.775 117.793"
	 xml:space="preserve">
<g>
	<path fill="#181616" d="M60.387-0.001c-33.347,0-60.388,27.034-60.388,60.387c0,26.683,17.303,49.315,41.297,57.304
		c3.019,0.559,4.126-1.312,4.126-2.906c0-1.439-0.056-6.197-0.082-11.242c-16.8,3.652-20.345-7.125-20.345-7.125
		c-2.747-6.979-6.705-8.836-6.705-8.836c-5.479-3.748,0.413-3.672,0.413-3.672c6.062,0.426,9.257,6.225,9.257,6.225
		c5.386,9.23,14.127,6.562,17.573,5.021c0.542-3.901,2.105-6.567,3.834-8.076c-13.413-1.524-27.514-6.704-27.514-29.844
		c0-6.592,2.358-11.979,6.223-16.209c-0.627-1.521-2.694-7.662,0.585-15.98c0,0,5.071-1.622,16.61,6.191
		c4.816-1.338,9.982-2.01,15.115-2.033c5.132,0.023,10.302,0.693,15.127,2.033c11.527-7.813,16.591-6.191,16.591-6.191
		c3.286,8.318,1.221,14.46,0.594,15.98c3.871,4.229,6.215,9.617,6.215,16.209c0,23.195-14.127,28.301-27.574,29.797
		c2.166,1.873,4.098,5.55,4.098,11.183c0,8.08-0.07,14.584-0.07,16.571c0,1.607,1.088,3.49,4.146,2.898
		c23.98-7.994,41.264-30.623,41.264-57.297C120.775,27.033,93.738-0.001,60.387-0.001z"/>
	<path fill="#181616" d="M22.871,86.703c-0.133,0.301-0.605,0.391-1.035,0.184c-0.438-0.195-0.684-0.604-0.542-0.904
		c0.13-0.311,0.604-0.396,1.04-0.188C22.774,85.988,23.024,86.402,22.871,86.703L22.871,86.703z"/>
	<path fill="#181616" d="M25.319,89.43c-0.288,0.267-0.853,0.144-1.233-0.278c-0.396-0.422-0.469-0.984-0.177-1.256
		c0.297-0.267,0.843-0.142,1.238,0.278C25.541,88.601,25.618,89.16,25.319,89.43L25.319,89.43z"/>
	<path fill="#181616" d="M27.698,92.908c-0.37,0.258-0.977,0.018-1.351-0.521c-0.369-0.536-0.369-1.182,0.01-1.438
		c0.374-0.258,0.971-0.025,1.35,0.506C28.076,92.001,28.076,92.646,27.698,92.908L27.698,92.908z"/>
	<path fill="#181616" d="M30.96,96.269c-0.331,0.364-1.036,0.266-1.552-0.232c-0.528-0.486-0.675-1.178-0.344-1.543
		c0.336-0.365,1.045-0.262,1.563,0.232C31.154,95.212,31.314,95.908,30.96,96.269L30.96,96.269z"/>
	<path fill="#181616" d="M35.46,98.219c-0.146,0.474-0.825,0.688-1.509,0.486c-0.685-0.207-1.13-0.763-0.992-1.238
		c0.143-0.478,0.824-0.7,1.513-0.485C35.155,97.189,35.603,97.738,35.46,98.219L35.46,98.219z"/>
	<path fill="#181616" d="M40.404,98.582c0.017,0.498-0.563,0.91-1.281,0.92c-0.722,0.018-1.307-0.387-1.314-0.877
		c0-0.504,0.567-0.912,1.289-0.924C39.815,97.687,40.404,98.087,40.404,98.582L40.404,98.582z"/>
	<path fill="#181616" d="M45.001,97.797c0.086,0.485-0.413,0.983-1.126,1.117c-0.701,0.129-1.35-0.173-1.438-0.652
		c-0.088-0.497,0.421-0.997,1.12-1.127C44.272,97.012,44.91,97.303,45.001,97.797L45.001,97.797z"/>
</g>
</svg>
